# xmcd CD database file
#
# Track frame offsets:
#	150
#	10537
#	20260
#	32642
#	43767
#	53170
#	63180
#	75975
#	87088
#	98234
#	112402
#	123502
#	139754
#	154885
#	165963
#	177600
#
# Disc length: 2523 seconds
#
# Revision: 0
# Processed by: cddbd v1.5.2PL0 Copyright (c) Steve Scherf et al.
# Submitted via: CDex 1.51
#
DISCID=c409d910
DTITLE=Del Rio Ramblers - Go Away Hound Dog
DYEAR=2010
DGENRE=Country
TTITLE0=Play The Music Louder
TTITLE1=My Gal Dottie
TTITLE2=Railroad Daddy
TTITLE3=Feelin' Blue
TTITLE4=Drive On
TTITLE5=So Tired Of Cryin'
TTITLE6=Lonesome Train
TTITLE7=I'll Be Here For A Lifetime
TTITLE8=Just Waitin'
TTITLE9=Ramblin' Man
TTITLE10=Play It Cool Man
TTITLE11=I'll Be There
TTITLE12=You're Gonna Change Or I'm Gonna Leave
TTITLE13=Travelin' Man
TTITLE14=Lost Soul
TTITLE15=Go Away Hound Dog
EXTD=YEAR: 2010
EXTT0=
EXTT1=
EXTT2=
EXTT3=
EXTT4=
EXTT5=
EXTT6=
EXTT7=
EXTT8=
EXTT9=
EXTT10=
EXTT11=
EXTT12=
EXTT13=
EXTT14=
EXTT15=
PLAYORDER=
